<svg xmlns="http://www.w3.org/2000/svg" xmlns:xlink="http://www.w3.org/1999/xlink" width="500" zoomAndPan="magnify" viewBox="0 0 375 374.999991" height="500" preserveAspectRatio="xMidYMid meet" version="1.0"><defs><clipPath id="042503df76"><path d="M 37.5 37.5 L 337.5 37.5 L 337.5 337.5 L 37.5 337.5 Z M 37.5 37.5 " clip-rule="nonzero"/></clipPath><clipPath id="0470159ee3"><path d="M 37.5 37.5 L 337.5 37.5 L 337.5 337.5 L 37.5 337.5 Z M 37.5 37.5 " clip-rule="nonzero"/></clipPath></defs><path fill="#000000" d="M 187.46875 60.511719 C 117.453125 60.511719 60.480469 117.484375 60.480469 187.5 C 60.480469 257.515625 117.453125 314.488281 187.46875 314.488281 C 257.484375 314.488281 314.457031 257.515625 314.457031 187.5 C 314.457031 117.484375 257.484375 60.511719 187.46875 60.511719 Z M 187.46875 313.414062 C 117.898438 313.414062 61.554688 257.007812 61.554688 187.5 C 61.554688 117.929688 117.898438 61.523438 187.46875 61.523438 C 257.039062 61.523438 313.382812 117.929688 313.382812 187.4375 C 313.382812 257.070312 257.039062 313.414062 187.46875 313.414062 Z M 187.46875 313.414062 " fill-opacity="1" fill-rule="nonzero"/><path fill="#000000" d="M 187.46875 297.144531 C 127.011719 297.144531 77.824219 247.957031 77.824219 187.5 C 77.824219 127.042969 127.011719 77.855469 187.46875 77.855469 C 247.925781 77.855469 297.113281 127.042969 297.113281 187.5 C 297.113281 247.957031 247.925781 297.144531 187.46875 297.144531 Z M 187.46875 79.1875 C 127.707031 79.1875 79.15625 127.804688 79.15625 187.5 C 79.15625 247.257812 127.773438 295.8125 187.46875 295.8125 C 247.164062 295.8125 295.84375 247.257812 295.84375 187.5 C 295.84375 127.742188 247.226562 79.1875 187.46875 79.1875 Z M 187.46875 79.1875 " fill-opacity="1" fill-rule="nonzero"/><path fill="#ffffff" d="M 187.46875 68.042969 L 187.46875 77.601562 M 202.40625 68.992188 L 201.207031 78.488281 M 217.15625 71.84375 L 214.753906 81.085938 M 231.464844 76.464844 L 227.917969 85.328125 M 245.011719 82.859375 L 240.390625 91.214844 M 257.671875 90.898438 L 252.039062 98.621094 M 269.257812 100.457031 L 262.738281 107.417969 M 279.511719 111.34375 L 272.167969 117.421875 M 288.3125 123.5 L 280.273438 128.625 M 295.527344 136.667969 L 286.855469 140.71875 M 301.035156 150.59375 L 291.921875 153.570312 M 304.773438 165.089844 L 295.402344 166.863281 M 306.671875 180.03125 L 297.113281 180.601562 M 306.671875 194.96875 L 297.113281 194.398438 M 304.773438 209.910156 L 295.402344 208.136719 M 301.035156 224.40625 L 291.921875 221.429688 M 295.527344 238.332031 L 286.855469 234.28125 M 288.3125 251.5 L 280.273438 246.375 M 279.511719 263.65625 L 272.167969 257.578125 M 269.257812 274.542969 L 262.738281 267.582031 M 257.671875 284.101562 L 252.039062 276.378906 M 245.011719 292.140625 L 240.390625 283.785156 M 231.464844 298.535156 L 227.917969 289.671875 M 217.15625 303.15625 L 214.753906 293.914062 M 202.40625 306.007812 L 201.207031 296.511719 M 187.46875 306.957031 L 187.46875 297.398438 M 172.527344 306.007812 L 173.730469 296.511719 M 157.777344 303.15625 L 160.183594 293.914062 M 143.472656 298.535156 L 147.015625 289.671875 M 129.925781 292.140625 L 134.546875 283.785156 M 117.261719 284.101562 L 122.898438 276.378906 M 105.679688 274.542969 L 112.199219 267.582031 M 95.421875 263.65625 L 102.765625 257.578125 M 86.625 251.5 L 94.664062 246.375 M 79.40625 238.332031 L 88.082031 234.28125 M 73.898438 224.40625 L 83.015625 221.429688 M 70.164062 209.910156 L 79.535156 208.136719 M 68.265625 194.96875 L 77.824219 194.398438 M 68.265625 180.03125 L 77.824219 180.601562 M 70.164062 165.089844 L 79.535156 166.863281 M 73.898438 150.59375 L 83.015625 153.570312 M 79.40625 136.667969 L 88.082031 140.71875 M 86.625 123.5 L 94.664062 128.625 M 95.421875 111.34375 L 102.765625 117.421875 M 105.679688 100.457031 L 112.199219 107.417969 M 117.261719 90.898438 L 122.898438 98.621094 M 129.925781 82.859375 L 134.546875 91.214844 M 143.472656 76.464844 L 147.015625 85.328125 M 157.777344 71.84375 L 160.183594 81.085938 M 172.527344 68.992188 L 173.730469 78.488281 " fill-opacity="1" fill-rule="nonzero"/><path fill="#000000" d="M 187.46875 307.523438 C 187.152344 307.523438 186.898438 307.273438 186.898438 306.957031 L 186.898438 297.398438 C 186.898438 297.078125 187.152344 296.828125 187.46875 296.828125 C 187.785156 296.828125 188.039062 297.078125 188.039062 297.398438 L 188.039062 306.957031 C 188.039062 307.273438 187.785156 307.523438 187.46875 307.523438 Z M 202.40625 306.574219 C 202.15625 306.574219 201.902344 306.386719 201.839844 306.070312 L 200.636719 296.574219 C 200.574219 296.257812 200.824219 296.003906 201.140625 295.941406 C 201.457031 295.878906 201.710938 296.128906 201.773438 296.445312 L 202.976562 305.941406 C 203.042969 306.257812 202.789062 306.511719 202.472656 306.574219 C 202.472656 306.574219 202.472656 306.574219 202.40625 306.574219 Z M 172.527344 306.574219 C 172.527344 306.574219 172.464844 306.574219 172.464844 306.574219 C 172.148438 306.511719 171.957031 306.257812 171.957031 305.941406 L 173.160156 296.445312 C 173.226562 296.128906 173.476562 295.941406 173.792969 295.941406 C 174.109375 296.003906 174.300781 296.257812 174.300781 296.574219 L 173.097656 306.070312 C 173.035156 306.386719 172.78125 306.574219 172.527344 306.574219 Z M 217.15625 303.726562 C 216.90625 303.726562 216.652344 303.539062 216.589844 303.285156 L 214.183594 294.042969 C 214.121094 293.726562 214.308594 293.410156 214.5625 293.34375 C 214.878906 293.28125 215.195312 293.472656 215.257812 293.726562 L 217.664062 302.96875 C 217.726562 303.285156 217.539062 303.601562 217.285156 303.664062 C 217.285156 303.726562 217.222656 303.726562 217.15625 303.726562 Z M 157.777344 303.726562 C 157.714844 303.726562 157.714844 303.726562 157.652344 303.726562 C 157.335938 303.664062 157.144531 303.347656 157.273438 303.03125 L 159.675781 293.789062 C 159.742188 293.472656 160.058594 293.28125 160.375 293.410156 C 160.691406 293.472656 160.878906 293.789062 160.753906 294.105469 L 158.347656 303.347656 C 158.222656 303.601562 158.03125 303.726562 157.777344 303.726562 Z M 231.464844 299.105469 C 231.210938 299.105469 231.023438 298.980469 230.957031 298.726562 L 227.414062 289.863281 C 227.285156 289.546875 227.414062 289.230469 227.730469 289.105469 C 228.046875 288.976562 228.363281 289.105469 228.488281 289.421875 L 232.035156 298.28125 C 232.160156 298.597656 232.035156 298.914062 231.71875 299.042969 C 231.589844 299.105469 231.527344 299.105469 231.464844 299.105469 Z M 143.472656 299.105469 C 143.410156 299.105469 143.34375 299.105469 143.28125 299.042969 C 142.964844 298.914062 142.839844 298.597656 142.964844 298.28125 L 146.511719 289.421875 C 146.636719 289.105469 146.953125 288.976562 147.269531 289.105469 C 147.585938 289.230469 147.714844 289.546875 147.585938 289.863281 L 144.042969 298.726562 C 143.914062 298.980469 143.726562 299.105469 143.472656 299.105469 Z M 245.011719 292.710938 C 244.820312 292.710938 244.632812 292.585938 244.503906 292.394531 L 239.882812 284.039062 C 239.757812 283.785156 239.820312 283.40625 240.136719 283.28125 C 240.390625 283.152344 240.769531 283.214844 240.898438 283.53125 L 245.519531 291.890625 C 245.644531 292.140625 245.582031 292.523438 245.265625 292.648438 C 245.203125 292.710938 245.074219 292.710938 245.011719 292.710938 Z M 129.925781 292.710938 C 129.859375 292.710938 129.734375 292.710938 129.671875 292.648438 C 129.417969 292.523438 129.292969 292.140625 129.417969 291.890625 L 134.039062 283.53125 C 134.164062 283.28125 134.546875 283.152344 134.800781 283.28125 C 135.050781 283.40625 135.179688 283.785156 135.050781 284.039062 L 130.429688 292.394531 C 130.304688 292.648438 130.113281 292.710938 129.925781 292.710938 Z M 257.671875 284.671875 C 257.484375 284.671875 257.292969 284.609375 257.230469 284.417969 L 251.597656 276.695312 C 251.40625 276.441406 251.46875 276.0625 251.722656 275.875 C 251.976562 275.683594 252.355469 275.746094 252.546875 276 L 258.179688 283.722656 C 258.371094 283.976562 258.304688 284.355469 258.054688 284.546875 C 257.925781 284.671875 257.800781 284.671875 257.671875 284.671875 Z M 117.261719 284.671875 C 117.136719 284.671875 117.011719 284.609375 116.945312 284.546875 C 116.695312 284.355469 116.628906 283.976562 116.820312 283.722656 L 122.453125 276 C 122.644531 275.746094 123.023438 275.683594 123.277344 275.871094 C 123.53125 276.0625 123.59375 276.441406 123.402344 276.695312 L 117.769531 284.417969 C 117.644531 284.609375 117.453125 284.671875 117.261719 284.671875 Z M 269.257812 275.113281 C 269.132812 275.113281 268.941406 275.050781 268.816406 274.921875 L 262.292969 267.960938 C 262.105469 267.707031 262.105469 267.390625 262.292969 267.136719 C 262.546875 266.945312 262.863281 266.945312 263.117188 267.136719 L 269.636719 274.101562 C 269.828125 274.355469 269.828125 274.671875 269.636719 274.921875 C 269.511719 275.113281 269.382812 275.113281 269.257812 275.113281 Z M 105.679688 275.113281 C 105.550781 275.113281 105.425781 275.050781 105.300781 274.988281 C 105.046875 274.796875 105.046875 274.417969 105.300781 274.164062 L 111.820312 267.199219 C 112.007812 266.945312 112.390625 266.945312 112.640625 267.199219 C 112.894531 267.390625 112.894531 267.769531 112.640625 268.023438 L 106.121094 274.988281 C 105.996094 275.050781 105.867188 275.113281 105.679688 275.113281 Z M 279.511719 264.226562 C 279.386719 264.226562 279.261719 264.160156 279.132812 264.097656 L 271.789062 258.019531 C 271.535156 257.832031 271.535156 257.453125 271.726562 257.199219 C 271.917969 256.945312 272.296875 256.945312 272.550781 257.136719 L 279.894531 263.210938 C 280.144531 263.402344 280.144531 263.78125 279.957031 264.035156 C 279.828125 264.160156 279.640625 264.226562 279.511719 264.226562 Z M 95.421875 264.226562 C 95.234375 264.226562 95.105469 264.160156 94.980469 264.035156 C 94.789062 263.78125 94.789062 263.464844 95.042969 263.210938 L 102.386719 257.136719 C 102.640625 256.945312 102.957031 256.945312 103.210938 257.199219 C 103.398438 257.453125 103.398438 257.769531 103.148438 258.019531 L 95.804688 264.097656 C 95.675781 264.160156 95.550781 264.226562 95.421875 264.226562 Z M 288.3125 252.070312 C 288.1875 252.070312 288.121094 252.070312 287.996094 252.007812 L 279.957031 246.878906 C 279.703125 246.691406 279.640625 246.375 279.765625 246.121094 C 279.957031 245.867188 280.273438 245.804688 280.527344 245.929688 L 288.566406 251.058594 C 288.820312 251.246094 288.882812 251.5625 288.753906 251.816406 C 288.691406 251.945312 288.503906 252.070312 288.3125 252.070312 Z M 86.625 252.070312 C 86.433594 252.070312 86.246094 251.945312 86.117188 251.816406 C 85.929688 251.5625 86.054688 251.183594 86.308594 251.058594 L 94.347656 245.929688 C 94.601562 245.738281 94.980469 245.867188 95.105469 246.121094 C 95.296875 246.375 95.171875 246.753906 94.917969 246.878906 L 86.878906 252.007812 C 86.8125 252.070312 86.75 252.070312 86.625 252.070312 Z M 295.527344 238.902344 C 295.464844 238.902344 295.339844 238.902344 295.277344 238.839844 L 286.601562 234.789062 C 286.351562 234.660156 286.222656 234.34375 286.351562 234.027344 C 286.476562 233.710938 286.855469 233.585938 287.109375 233.777344 L 295.78125 237.828125 C 296.097656 237.953125 296.164062 238.269531 296.035156 238.585938 C 295.972656 238.777344 295.78125 238.902344 295.527344 238.902344 Z M 79.40625 238.902344 C 79.21875 238.902344 78.964844 238.777344 78.902344 238.585938 C 78.773438 238.332031 78.902344 237.953125 79.15625 237.828125 L 87.828125 233.777344 C 88.082031 233.648438 88.460938 233.777344 88.585938 234.027344 C 88.714844 234.28125 88.585938 234.660156 88.332031 234.789062 L 79.660156 238.839844 C 79.535156 238.902344 79.472656 238.902344 79.40625 238.902344 Z M 301.035156 224.976562 C 300.972656 224.976562 300.910156 224.976562 300.847656 224.976562 L 291.730469 222 C 291.414062 221.875 291.289062 221.558594 291.351562 221.304688 C 291.476562 220.988281 291.792969 220.863281 292.046875 220.925781 L 301.164062 223.898438 C 301.480469 224.027344 301.605469 224.34375 301.542969 224.597656 C 301.542969 224.851562 301.289062 224.976562 301.035156 224.976562 Z M 73.898438 224.976562 C 73.648438 224.976562 73.457031 224.851562 73.332031 224.597656 C 73.203125 224.28125 73.394531 223.964844 73.710938 223.898438 L 82.824219 220.925781 C 83.078125 220.863281 83.460938 220.988281 83.523438 221.304688 C 83.585938 221.621094 83.460938 221.9375 83.140625 222 L 74.027344 224.976562 C 73.964844 224.976562 73.964844 224.976562 73.898438 224.976562 Z M 70.164062 210.480469 C 69.910156 210.480469 69.660156 210.289062 69.59375 210.035156 C 69.53125 209.71875 69.722656 209.402344 70.039062 209.339844 L 79.40625 207.566406 C 79.722656 207.503906 80.039062 207.695312 80.105469 208.011719 C 80.167969 208.328125 79.976562 208.644531 79.660156 208.707031 L 70.292969 210.480469 C 70.226562 210.417969 70.164062 210.480469 70.164062 210.480469 Z M 304.773438 210.480469 C 304.707031 210.480469 304.707031 210.480469 304.644531 210.480469 L 295.277344 208.707031 C 294.960938 208.644531 294.769531 208.328125 294.832031 208.011719 C 294.894531 207.695312 295.148438 207.503906 295.527344 207.566406 L 304.898438 209.339844 C 305.214844 209.402344 305.40625 209.71875 305.339844 210.035156 C 305.277344 210.289062 305.089844 210.480469 304.773438 210.480469 Z M 306.671875 195.539062 L 297.113281 194.90625 C 296.796875 194.90625 296.542969 194.589844 296.605469 194.273438 C 296.605469 193.957031 296.859375 193.765625 297.238281 193.765625 L 306.796875 194.335938 C 307.113281 194.335938 307.367188 194.652344 307.304688 194.96875 C 307.242188 195.351562 306.988281 195.539062 306.671875 195.539062 Z M 68.265625 195.539062 C 67.949219 195.539062 67.695312 195.285156 67.695312 195.035156 C 67.695312 194.714844 67.886719 194.464844 68.203125 194.398438 L 77.761719 193.832031 C 77.761719 193.832031 77.761719 193.832031 77.824219 193.832031 C 78.140625 193.832031 78.394531 194.082031 78.394531 194.335938 C 78.394531 194.652344 78.203125 194.90625 77.886719 194.96875 Z M 297.113281 181.167969 C 296.796875 181.167969 296.542969 180.917969 296.542969 180.664062 C 296.542969 180.347656 296.730469 180.09375 297.046875 180.03125 L 306.605469 179.460938 C 306.605469 179.460938 306.605469 179.460938 306.671875 179.460938 C 306.988281 179.460938 307.242188 179.714844 307.242188 179.964844 C 307.242188 180.285156 307.050781 180.535156 306.734375 180.601562 L 297.113281 181.167969 C 297.175781 181.167969 297.175781 181.167969 297.113281 181.167969 Z M 77.824219 181.167969 C 77.761719 181.167969 77.761719 181.167969 77.824219 181.167969 L 68.265625 180.535156 C 67.949219 180.535156 67.695312 180.21875 67.757812 179.902344 C 67.757812 179.585938 68.011719 179.332031 68.394531 179.398438 L 77.953125 179.964844 C 78.269531 179.964844 78.519531 180.285156 78.457031 180.601562 C 78.332031 180.917969 78.078125 181.167969 77.824219 181.167969 Z M 295.402344 167.496094 C 295.148438 167.496094 294.894531 167.304688 294.832031 167.050781 C 294.769531 166.734375 294.960938 166.417969 295.277344 166.355469 L 304.644531 164.582031 C 304.960938 164.519531 305.277344 164.710938 305.339844 165.027344 C 305.40625 165.34375 305.214844 165.660156 304.898438 165.722656 L 295.527344 167.496094 C 295.464844 167.496094 295.464844 167.496094 295.402344 167.496094 Z M 79.535156 167.496094 C 79.472656 167.496094 79.472656 167.496094 79.40625 167.496094 L 70.039062 165.722656 C 69.722656 165.660156 69.53125 165.34375 69.59375 165.027344 C 69.660156 164.710938 69.976562 164.519531 70.292969 164.582031 L 79.660156 166.355469 C 79.976562 166.417969 80.167969 166.734375 80.105469 167.050781 C 80.039062 167.304688 79.789062 167.496094 79.535156 167.496094 Z M 291.984375 154.136719 C 291.730469 154.136719 291.539062 154.011719 291.414062 153.757812 C 291.351562 153.441406 291.476562 153.125 291.792969 153.0625 L 300.910156 150.085938 C 301.226562 149.960938 301.542969 150.148438 301.605469 150.46875 C 301.734375 150.785156 301.542969 151.101562 301.226562 151.164062 L 292.109375 154.136719 C 292.109375 154.074219 292.046875 154.136719 291.984375 154.136719 Z M 82.953125 154.136719 C 82.890625 154.136719 82.824219 154.136719 82.761719 154.136719 L 73.648438 151.164062 C 73.332031 151.035156 73.203125 150.71875 73.265625 150.46875 C 73.394531 150.148438 73.710938 150.023438 73.964844 150.085938 L 83.078125 153.0625 C 83.394531 153.1875 83.523438 153.503906 83.460938 153.757812 C 83.394531 153.949219 83.207031 154.136719 82.953125 154.136719 Z M 286.917969 141.289062 C 286.730469 141.289062 286.476562 141.160156 286.414062 140.972656 C 286.285156 140.71875 286.414062 140.339844 286.667969 140.210938 L 295.339844 136.160156 C 295.59375 136.035156 295.972656 136.160156 296.097656 136.414062 C 296.226562 136.667969 296.097656 137.046875 295.84375 137.171875 L 287.171875 141.222656 C 287.046875 141.289062 286.984375 141.289062 286.917969 141.289062 Z M 88.015625 141.289062 C 87.953125 141.289062 87.828125 141.289062 87.765625 141.222656 L 79.089844 137.171875 C 78.835938 137.046875 78.710938 136.730469 78.835938 136.414062 C 78.964844 136.097656 79.34375 136.035156 79.597656 136.160156 L 88.269531 140.210938 C 88.585938 140.339844 88.648438 140.65625 88.523438 140.972656 C 88.460938 141.160156 88.269531 141.289062 88.015625 141.289062 Z M 280.273438 129.195312 C 280.082031 129.195312 279.894531 129.132812 279.765625 128.941406 C 279.578125 128.691406 279.703125 128.308594 279.957031 128.183594 L 287.996094 123.054688 C 288.25 122.867188 288.628906 122.992188 288.753906 123.246094 C 288.945312 123.5 288.820312 123.878906 288.566406 124.003906 L 280.527344 129.132812 C 280.460938 129.132812 280.335938 129.195312 280.273438 129.195312 Z M 94.664062 129.195312 C 94.539062 129.195312 94.472656 129.195312 94.347656 129.132812 L 86.308594 124.003906 C 86.054688 123.816406 85.992188 123.5 86.117188 123.246094 C 86.308594 122.992188 86.625 122.929688 86.878906 123.054688 L 94.917969 128.183594 C 95.171875 128.375 95.234375 128.691406 95.105469 128.941406 C 95.042969 129.070312 94.855469 129.195312 94.664062 129.195312 Z M 272.105469 118.054688 C 271.917969 118.054688 271.789062 117.992188 271.664062 117.863281 C 271.472656 117.613281 271.472656 117.296875 271.726562 117.042969 L 279.070312 110.964844 C 279.324219 110.773438 279.640625 110.773438 279.894531 111.027344 C 280.082031 111.28125 280.082031 111.597656 279.828125 111.851562 L 272.484375 117.929688 C 272.421875 117.992188 272.234375 118.054688 272.105469 118.054688 Z M 102.832031 118.054688 C 102.703125 118.054688 102.578125 117.992188 102.449219 117.929688 L 95.105469 111.851562 C 94.855469 111.660156 94.855469 111.28125 95.042969 111.027344 C 95.234375 110.773438 95.613281 110.773438 95.867188 110.964844 L 103.210938 117.042969 C 103.464844 117.230469 103.464844 117.613281 103.273438 117.863281 C 103.148438 117.929688 102.957031 118.054688 102.832031 118.054688 Z M 112.261719 107.988281 C 112.136719 107.988281 111.945312 107.925781 111.820312 107.800781 L 105.300781 100.835938 C 105.109375 100.582031 105.109375 100.265625 105.300781 100.011719 C 105.550781 99.824219 105.867188 99.824219 106.121094 100.011719 L 112.640625 106.976562 C 112.832031 107.230469 112.832031 107.546875 112.640625 107.800781 C 112.515625 107.925781 112.390625 107.988281 112.261719 107.988281 Z M 262.675781 107.988281 C 262.546875 107.988281 262.421875 107.925781 262.292969 107.863281 C 262.042969 107.671875 262.042969 107.292969 262.292969 107.039062 L 268.816406 100.078125 C 269.003906 99.824219 269.382812 99.824219 269.636719 100.078125 C 269.890625 100.265625 269.890625 100.644531 269.636719 100.898438 L 263.117188 107.863281 C 262.992188 107.925781 262.863281 107.988281 262.675781 107.988281 Z M 252.039062 99.191406 C 251.914062 99.191406 251.785156 99.125 251.722656 99.0625 C 251.46875 98.875 251.40625 98.492188 251.597656 98.242188 L 257.230469 90.515625 C 257.417969 90.265625 257.800781 90.199219 258.054688 90.390625 C 258.304688 90.582031 258.371094 90.960938 258.179688 91.214844 L 252.546875 98.9375 C 252.417969 99.0625 252.230469 99.191406 252.039062 99.191406 Z M 122.898438 99.191406 C 122.707031 99.191406 122.519531 99.125 122.453125 98.9375 L 116.820312 91.214844 C 116.628906 90.960938 116.695312 90.582031 116.945312 90.390625 C 117.199219 90.199219 117.582031 90.265625 117.769531 90.515625 L 123.402344 98.242188 C 123.59375 98.492188 123.53125 98.875 123.277344 99.0625 C 123.085938 99.125 123.023438 99.191406 122.898438 99.191406 Z M 240.390625 91.785156 C 240.328125 91.785156 240.199219 91.785156 240.136719 91.71875 C 239.882812 91.59375 239.757812 91.214844 239.882812 90.960938 L 244.503906 82.605469 C 244.632812 82.351562 245.011719 82.226562 245.265625 82.351562 C 245.519531 82.476562 245.644531 82.859375 245.519531 83.109375 L 240.898438 91.46875 C 240.769531 91.65625 240.582031 91.785156 240.390625 91.785156 Z M 134.546875 91.785156 C 134.355469 91.785156 134.164062 91.65625 134.039062 91.46875 L 129.417969 83.109375 C 129.292969 82.859375 129.355469 82.476562 129.671875 82.351562 C 129.925781 82.226562 130.304688 82.289062 130.429688 82.605469 L 135.050781 90.960938 C 135.179688 91.214844 135.117188 91.59375 134.800781 91.71875 C 134.734375 91.785156 134.609375 91.785156 134.546875 91.785156 Z M 227.917969 85.894531 C 227.855469 85.894531 227.792969 85.894531 227.730469 85.832031 C 227.414062 85.707031 227.285156 85.390625 227.414062 85.074219 L 230.957031 76.210938 C 231.085938 75.894531 231.402344 75.765625 231.71875 75.894531 C 232.035156 76.019531 232.160156 76.335938 232.035156 76.652344 L 228.488281 85.515625 C 228.363281 85.769531 228.171875 85.894531 227.917969 85.894531 Z M 147.015625 85.894531 C 146.761719 85.894531 146.574219 85.769531 146.511719 85.515625 L 142.964844 76.652344 C 142.839844 76.335938 142.964844 76.019531 143.28125 75.894531 C 143.597656 75.765625 143.914062 75.894531 144.042969 76.210938 L 147.585938 85.074219 C 147.714844 85.390625 147.585938 85.707031 147.269531 85.832031 C 147.144531 85.894531 147.078125 85.894531 147.015625 85.894531 Z M 214.816406 81.65625 C 214.753906 81.65625 214.753906 81.65625 214.6875 81.65625 C 214.371094 81.589844 214.183594 81.273438 214.308594 80.957031 L 216.714844 71.714844 C 216.777344 71.398438 217.09375 71.210938 217.410156 71.335938 C 217.726562 71.398438 217.917969 71.714844 217.792969 72.03125 L 215.324219 81.210938 C 215.257812 81.464844 215.070312 81.65625 214.816406 81.65625 Z M 160.121094 81.65625 C 159.867188 81.65625 159.613281 81.464844 159.550781 81.210938 L 157.144531 71.96875 C 157.082031 71.652344 157.273438 71.335938 157.523438 71.273438 C 157.84375 71.210938 158.160156 71.398438 158.222656 71.652344 L 160.628906 80.894531 C 160.691406 81.210938 160.5 81.527344 160.246094 81.589844 C 160.246094 81.65625 160.183594 81.65625 160.121094 81.65625 Z M 201.269531 79.058594 C 201.269531 79.058594 201.207031 79.058594 201.207031 79.058594 C 200.890625 78.996094 200.699219 78.742188 200.699219 78.425781 L 201.902344 68.929688 C 201.964844 68.613281 202.21875 68.359375 202.535156 68.425781 C 202.851562 68.488281 203.042969 68.742188 203.042969 69.058594 L 201.839844 78.554688 C 201.773438 78.871094 201.523438 79.058594 201.269531 79.058594 Z M 173.667969 79.058594 C 173.414062 79.058594 173.160156 78.871094 173.097656 78.554688 L 171.894531 69.058594 C 171.832031 68.742188 172.085938 68.488281 172.402344 68.425781 C 172.71875 68.359375 172.972656 68.613281 173.035156 68.929688 L 174.238281 78.425781 C 174.300781 78.742188 174.046875 78.996094 173.730469 79.058594 C 173.730469 79.058594 173.730469 79.058594 173.667969 79.058594 Z M 187.46875 78.171875 C 187.152344 78.171875 186.898438 77.917969 186.898438 77.601562 L 186.898438 68.042969 C 186.898438 67.726562 187.152344 67.476562 187.46875 67.476562 C 187.785156 67.476562 188.039062 67.726562 188.039062 68.042969 L 188.039062 77.601562 C 188.039062 77.917969 187.785156 78.171875 187.46875 78.171875 Z M 187.46875 78.171875 " fill-opacity="1" fill-rule="nonzero"/><path fill="#000000" d="M 187.46875 294.230469 C 128.660156 294.230469 80.738281 246.375 80.738281 187.5 C 80.738281 128.625 128.660156 80.832031 187.46875 80.832031 C 246.277344 80.832031 294.199219 128.691406 294.199219 187.5 C 294.199219 246.308594 246.277344 294.230469 187.46875 294.230469 Z M 187.46875 86.085938 C 131.507812 86.085938 86.054688 131.601562 86.054688 187.5 C 86.054688 243.460938 131.570312 288.914062 187.46875 288.914062 C 243.367188 288.914062 288.882812 243.460938 288.882812 187.5 C 288.882812 131.539062 243.429688 86.085938 187.46875 86.085938 Z M 187.46875 86.085938 " fill-opacity="1" fill-rule="nonzero"/><path fill="#000000" d="M 200.890625 164.078125 L 201.015625 164.203125 L 201.140625 164.203125 L 201.207031 163.761719 Z M 194.367188 161.417969 L 194.496094 161.480469 L 194.683594 161.480469 L 194.621094 161.039062 Z M 183.988281 161.480469 L 190.886719 161.480469 L 187.46875 160.53125 Z M 187.46875 160.152344 L 187.339844 160.53125 L 187.59375 160.53125 Z M 206.585938 168.382812 L 206.648438 168.507812 L 206.777344 168.570312 L 206.902344 168.191406 Z M 197.535156 163.253906 L 203.546875 166.734375 L 201.015625 164.203125 Z M 201.269531 163.824219 L 200.953125 164.078125 L 201.078125 164.203125 L 201.207031 164.203125 Z M 194.367188 161.417969 L 194.496094 161.480469 L 194.683594 161.480469 L 194.621094 161.039062 Z M 206.902344 168.253906 L 206.523438 168.382812 L 206.585938 168.507812 L 203.484375 166.734375 L 208.359375 171.609375 L 210.828125 174.144531 L 210.953125 174.269531 L 211.207031 173.953125 L 220.828125 161.988281 Z M 197.535156 163.253906 L 203.546875 166.734375 L 201.015625 164.203125 Z M 201.269531 163.824219 L 200.953125 164.078125 L 201.078125 164.203125 L 201.207031 164.203125 Z M 211.335938 173.953125 L 220.957031 161.988281 L 206.902344 168.253906 L 206.523438 168.382812 L 206.585938 168.507812 L 203.484375 166.734375 L 208.359375 171.609375 L 211.777344 177.625 L 213.550781 180.726562 L 213.613281 180.851562 L 213.992188 180.601562 L 226.402344 171.484375 Z M 214.121094 180.664062 L 226.527344 171.546875 L 211.335938 173.953125 L 210.890625 174.015625 L 210.890625 174.144531 L 208.421875 171.609375 L 211.839844 177.625 L 213.613281 184.335938 L 214.5625 187.816406 L 214.625 187.941406 L 215.070312 187.816406 L 229.375 182.246094 Z M 229.375 182.246094 L 214.121094 180.601562 L 213.675781 180.535156 L 213.675781 180.726562 L 211.902344 177.625 L 213.675781 184.335938 L 213.675781 191.296875 L 211.902344 198.007812 L 213.675781 194.84375 L 213.675781 194.96875 L 214.121094 194.90625 L 229.375 193.324219 L 215.070312 187.753906 Z M 229.375 193.386719 L 215.070312 187.816406 L 214.625 187.691406 L 214.5625 187.816406 L 213.613281 184.335938 L 213.613281 191.296875 L 211.839844 198.007812 L 210.890625 201.425781 L 210.890625 201.554688 L 211.335938 201.617188 L 226.527344 204.023438 L 214.054688 194.96875 Z M 226.464844 204.085938 L 214.054688 194.96875 L 213.738281 194.714844 L 213.675781 194.84375 L 211.902344 198.007812 L 208.484375 203.960938 L 206.714844 207.0625 L 206.585938 207.25 L 206.964844 207.441406 L 221.019531 213.707031 L 211.335938 201.679688 Z M 211.335938 201.679688 L 211.082031 201.363281 L 210.953125 201.492188 L 211.902344 198.070312 L 208.484375 204.023438 L 203.546875 208.960938 L 206.648438 207.125 L 206.523438 207.3125 L 206.902344 207.503906 L 220.957031 213.769531 Z M 201.015625 211.429688 L 200.953125 211.492188 L 201.269531 211.746094 L 201.207031 211.367188 Z M 203.546875 208.898438 L 206.648438 207.0625 L 208.421875 203.960938 Z M 206.648438 207.0625 L 206.523438 207.25 L 206.902344 207.441406 L 206.714844 206.996094 Z M 201.015625 211.429688 L 203.546875 208.898438 L 197.535156 212.378906 Z M 201.207031 211.808594 L 201.140625 211.429688 L 200.953125 211.492188 L 200.890625 211.554688 Z M 194.367188 214.214844 L 194.621094 214.59375 L 194.683594 214.152344 L 194.496094 214.152344 Z M 197.535156 212.378906 L 200.953125 211.429688 L 203.484375 208.898438 Z M 201.015625 211.429688 L 200.953125 211.492188 L 201.269531 211.746094 L 201.207031 211.367188 Z M 194.496094 214.152344 L 197.597656 212.378906 L 190.949219 214.152344 Z M 194.621094 214.59375 L 194.683594 214.152344 L 194.496094 214.152344 L 194.367188 214.214844 Z M 187.339844 215.101562 L 187.46875 215.480469 L 187.59375 215.101562 Z M 190.949219 214.152344 L 194.496094 214.152344 L 197.597656 212.378906 Z M 194.367188 214.214844 L 194.621094 214.59375 L 194.683594 214.152344 L 194.496094 214.152344 Z M 187.339844 215.101562 L 187.46875 215.480469 L 187.59375 215.101562 Z M 180.25 214.152344 L 180.316406 214.59375 L 180.566406 214.214844 L 180.441406 214.152344 Z M 187.46875 215.101562 L 187.339844 215.101562 L 187.46875 215.480469 L 187.59375 215.101562 Z M 177.402344 212.378906 L 180.503906 214.152344 L 184.050781 214.152344 Z M 180.316406 214.59375 L 180.566406 214.214844 L 180.441406 214.152344 L 180.25 214.152344 Z M 173.792969 211.367188 L 173.730469 211.746094 L 174.046875 211.492188 L 173.984375 211.429688 Z M 177.402344 212.378906 L 180.503906 214.152344 L 184.050781 214.152344 Z M 180.25 214.152344 L 180.316406 214.59375 L 180.566406 214.214844 L 180.441406 214.152344 Z M 173.921875 211.429688 L 177.339844 212.378906 L 171.324219 208.898438 Z M 173.730469 211.808594 L 174.046875 211.554688 L 173.984375 211.492188 L 173.792969 211.429688 Z M 168.160156 206.996094 L 167.96875 207.441406 L 168.351562 207.25 L 168.222656 207.0625 Z M 171.390625 208.898438 L 173.921875 211.429688 L 177.339844 212.378906 Z M 173.792969 211.367188 L 173.730469 211.746094 L 174.046875 211.492188 L 173.984375 211.429688 Z M 168.285156 207.0625 L 171.390625 208.898438 L 166.453125 203.960938 Z M 167.96875 207.441406 L 168.351562 207.25 L 168.222656 207.0625 L 168.097656 206.996094 Z M 163.855469 201.300781 L 163.601562 201.617188 L 164.046875 201.554688 L 164.046875 201.425781 Z M 166.515625 203.960938 L 168.285156 207.0625 L 171.390625 208.898438 Z M 168.160156 206.996094 L 167.96875 207.441406 L 168.351562 207.25 L 168.222656 207.0625 Z M 163.855469 201.300781 L 163.601562 201.617188 L 164.046875 201.554688 L 164.046875 201.425781 Z M 160.878906 194.96875 L 161.324219 195.035156 L 161.324219 194.90625 L 161.261719 194.78125 Z M 163.980469 201.425781 L 163.855469 201.300781 L 163.601562 201.617188 L 164.046875 201.554688 Z M 161.261719 194.84375 L 163.03125 198.007812 L 161.261719 191.296875 Z M 160.878906 194.96875 L 161.324219 195.035156 L 161.324219 194.90625 L 161.261719 194.78125 Z M 159.867188 187.816406 L 160.3125 187.941406 L 160.375 187.816406 L 160.3125 187.691406 Z M 161.261719 191.296875 L 161.261719 194.84375 L 163.03125 198.007812 Z M 160.878906 194.96875 L 161.324219 195.035156 L 161.324219 194.90625 L 161.261719 194.78125 Z M 160.375 187.816406 L 161.324219 191.296875 L 161.324219 184.335938 Z M 161.261719 180.789062 L 161.261719 180.601562 L 160.816406 180.664062 L 161.195312 180.917969 Z M 159.867188 187.816406 L 160.3125 187.941406 L 160.375 187.816406 L 160.3125 187.691406 Z M 163.601562 173.953125 L 163.855469 174.269531 L 163.980469 174.144531 L 163.980469 174.015625 Z M 161.261719 184.335938 L 163.03125 177.625 L 161.261719 180.726562 Z M 161.261719 191.296875 L 161.261719 184.335938 L 160.3125 187.816406 Z M 160.816406 180.664062 L 161.195312 180.917969 L 161.261719 180.789062 L 161.261719 180.601562 Z M 159.867188 187.816406 L 160.3125 187.941406 L 160.375 187.816406 L 160.3125 187.691406 Z M 168.035156 168.253906 L 168.160156 168.636719 L 168.285156 168.570312 L 168.351562 168.445312 Z M 163.097656 177.625 L 166.515625 171.609375 L 164.046875 174.144531 Z M 163.601562 173.953125 L 163.855469 174.269531 L 163.980469 174.144531 L 163.980469 174.015625 Z M 161.261719 184.335938 L 163.03125 177.625 L 161.261719 180.726562 Z M 160.816406 180.664062 L 161.195312 180.917969 L 161.261719 180.789062 L 161.261719 180.601562 Z M 173.667969 163.824219 L 173.730469 164.265625 L 173.859375 164.265625 L 173.984375 164.140625 Z M 168.160156 168.636719 L 168.285156 168.570312 L 168.351562 168.445312 L 167.96875 168.320312 Z M 163.097656 177.625 L 166.515625 171.609375 L 164.046875 174.144531 Z M 163.601562 173.953125 L 163.855469 174.269531 L 163.980469 174.144531 L 163.980469 174.015625 Z M 180.316406 161.039062 L 180.25 161.480469 L 180.441406 161.480469 L 180.566406 161.417969 Z M 171.390625 166.734375 L 177.402344 163.253906 L 173.921875 164.203125 Z M 173.667969 163.824219 L 173.730469 164.265625 L 173.859375 164.265625 L 173.984375 164.140625 Z M 168.160156 168.636719 L 168.285156 168.570312 L 168.351562 168.445312 L 167.96875 168.320312 Z M 187.46875 160.152344 L 187.339844 160.53125 L 187.59375 160.53125 Z M 177.402344 163.253906 L 184.050781 161.480469 L 180.503906 161.480469 Z M 180.316406 161.039062 L 180.25 161.480469 L 180.441406 161.480469 L 180.566406 161.417969 Z M 171.390625 166.734375 L 177.402344 163.253906 L 173.921875 164.203125 Z M 173.667969 163.824219 L 173.730469 164.265625 L 173.859375 164.265625 L 173.984375 164.140625 Z M 194.621094 161.039062 L 194.367188 161.417969 L 194.496094 161.480469 L 194.683594 161.480469 Z M 183.988281 161.480469 L 190.886719 161.480469 L 187.46875 160.53125 Z M 187.46875 160.152344 L 187.339844 160.53125 L 187.59375 160.53125 Z M 177.402344 163.253906 L 184.050781 161.480469 L 180.503906 161.480469 Z M 180.316406 161.039062 L 180.25 161.480469 L 180.441406 161.480469 L 180.566406 161.417969 Z M 180.316406 161.039062 " fill-opacity="1" fill-rule="nonzero"/><path fill="#000000" d="M 215.070312 187.816406 L 229.375 182.246094 L 281.347656 187.816406 L 229.375 193.386719 Z M 215.070312 187.816406 " fill-opacity="1" fill-rule="nonzero"/><path fill="#000000" d="M 214.121094 180.664062 L 226.527344 171.546875 L 278.183594 163.382812 L 229.375 182.246094 Z M 214.121094 180.664062 " fill-opacity="1" fill-rule="nonzero"/><path fill="#000000" d="M 278.183594 212.253906 L 226.464844 204.085938 L 214.054688 194.96875 L 229.375 193.386719 Z M 278.183594 212.253906 " fill-opacity="1" fill-rule="nonzero"/><path fill="#000000" d="M 211.335938 173.953125 L 220.957031 161.925781 L 268.75 140.589844 L 226.527344 171.546875 Z M 211.335938 173.953125 " fill-opacity="1" fill-rule="nonzero"/><path fill="#000000" d="M 211.335938 201.679688 L 226.464844 204.085938 L 268.75 235.042969 L 221.019531 213.707031 Z M 211.335938 201.679688 " fill-opacity="1" fill-rule="nonzero"/><path fill="#000000" d="M 206.585938 207.25 L 206.714844 207.0625 L 203.609375 208.898438 L 201.078125 211.429688 L 201.269531 211.367188 L 201.332031 211.746094 L 201.015625 211.492188 L 201.078125 211.429688 L 197.660156 212.378906 L 194.558594 214.152344 L 194.75 214.152344 L 194.683594 214.59375 L 194.433594 214.214844 L 194.558594 214.152344 L 191.011719 214.152344 L 197.660156 212.378906 L 203.675781 208.898438 L 208.613281 203.960938 L 212.03125 198.007812 L 213.804688 191.296875 L 213.804688 184.335938 L 212.03125 177.625 L 208.613281 171.609375 L 203.738281 166.734375 L 197.722656 163.253906 L 201.207031 164.203125 L 201.078125 164.078125 L 201.394531 163.824219 L 201.332031 164.265625 L 201.207031 164.265625 L 203.738281 166.800781 L 206.839844 168.570312 L 206.777344 168.445312 L 207.15625 168.320312 L 221.210938 162.050781 L 254.066406 121.15625 L 213.421875 154.203125 L 234.628906 106.152344 L 203.800781 148.695312 L 211.96875 96.722656 L 192.976562 145.71875 L 187.46875 93.429688 L 181.960938 145.71875 L 163.160156 96.59375 L 171.324219 148.566406 L 140.496094 106.027344 L 161.703125 154.074219 L 121.0625 121.03125 L 153.917969 161.925781 L 106.121094 140.589844 L 148.410156 171.546875 L 96.753906 163.382812 L 145.5625 182.246094 L 93.585938 187.816406 L 145.625 193.386719 L 96.816406 212.253906 L 148.472656 204.085938 L 106.183594 235.042969 L 153.980469 213.707031 L 121.125 254.601562 L 161.765625 221.558594 L 140.558594 269.605469 L 171.390625 227.128906 L 163.222656 279.039062 L 181.960938 229.976562 L 187.46875 282.265625 L 193.039062 229.976562 L 211.777344 279.039062 L 203.609375 227.128906 L 234.441406 269.605469 L 213.234375 221.558594 L 253.875 254.601562 L 221.019531 213.707031 L 206.964844 207.441406 Z M 194.683594 161.480469 L 194.496094 161.480469 L 194.367188 161.417969 L 194.621094 161.039062 Z M 174.046875 164.078125 L 173.921875 164.203125 L 177.402344 163.253906 L 180.503906 161.480469 L 180.316406 161.480469 L 180.378906 161.039062 L 180.632812 161.417969 L 180.503906 161.480469 L 184.050781 161.480469 L 187.53125 160.53125 L 187.40625 160.53125 L 187.53125 160.152344 L 187.660156 160.53125 L 187.53125 160.53125 L 190.949219 161.480469 L 184.050781 161.480469 L 177.402344 163.253906 L 171.390625 166.734375 L 173.921875 164.203125 L 173.792969 164.203125 L 173.730469 163.761719 Z M 168.351562 168.382812 L 168.285156 168.507812 L 168.160156 168.570312 L 168.035156 168.191406 Z M 160.375 187.816406 L 160.3125 187.941406 L 159.867188 187.816406 L 160.3125 187.691406 L 160.375 187.816406 L 161.324219 184.335938 L 161.324219 180.789062 L 161.261719 180.917969 L 160.878906 180.664062 L 161.324219 180.601562 L 161.324219 180.789062 L 163.097656 177.6875 L 164.046875 174.207031 L 163.917969 174.332031 L 163.664062 174.015625 L 164.109375 174.078125 L 164.109375 174.207031 L 166.578125 171.675781 L 163.160156 177.6875 L 161.386719 184.398438 L 161.386719 191.363281 L 163.160156 198.070312 L 161.386719 194.90625 L 161.386719 195.035156 L 160.945312 194.96875 L 161.261719 194.714844 L 161.324219 194.84375 L 161.324219 191.296875 Z M 163.855469 201.300781 L 163.980469 201.425781 L 163.980469 201.554688 L 163.539062 201.617188 Z M 180.566406 214.214844 L 180.316406 214.59375 L 180.25 214.152344 L 180.441406 214.152344 L 177.339844 212.378906 L 173.921875 211.429688 L 173.984375 211.492188 L 173.667969 211.746094 L 173.730469 211.367188 L 173.921875 211.429688 L 171.390625 208.898438 L 168.285156 207.0625 L 168.414062 207.25 L 168.035156 207.441406 L 168.222656 206.996094 L 168.351562 207.0625 L 166.578125 203.960938 L 171.515625 208.898438 L 177.53125 212.378906 L 184.175781 214.152344 L 180.632812 214.152344 Z M 187.339844 215.101562 L 187.59375 215.101562 L 187.46875 215.480469 Z M 187.339844 215.101562 " fill-opacity="1" fill-rule="nonzero"/><path fill="#000000" d="M 187.46875 187.5 L 210.320312 151.542969 L 267.738281 107.292969 Z M 187.46875 187.5 L 151.511719 164.648438 L 107.261719 107.230469 Z M 187.46875 187.5 L 164.617188 223.457031 L 107.199219 267.707031 Z M 187.46875 187.5 L 223.425781 210.351562 L 267.675781 267.769531 Z M 187.46875 187.5 " fill-opacity="1" fill-rule="nonzero"/><path fill="#000000" d="M 107.199219 268.71875 C 106.945312 268.71875 106.628906 268.59375 106.4375 268.402344 C 106.121094 268.023438 106.121094 267.453125 106.5 267.074219 L 185.886719 187.691406 L 150.941406 165.535156 C 150.816406 165.46875 150.75 165.40625 150.6875 165.28125 L 106.4375 107.863281 C 106.121094 107.417969 106.183594 106.851562 106.566406 106.535156 C 106.945312 106.21875 107.515625 106.21875 107.894531 106.597656 L 187.277344 185.980469 L 209.433594 151.035156 C 209.5 150.910156 209.5625 150.847656 209.6875 150.785156 L 267.105469 106.535156 C 267.484375 106.21875 268.117188 106.28125 268.433594 106.660156 C 268.75 107.039062 268.75 107.609375 268.371094 107.988281 L 189.050781 187.308594 L 223.996094 209.464844 C 224.121094 209.53125 224.183594 209.59375 224.25 209.71875 L 268.5 267.136719 C 268.816406 267.515625 268.75 268.148438 268.371094 268.464844 C 267.992188 268.78125 267.421875 268.78125 267.042969 268.402344 L 187.660156 189.082031 L 165.5 224.027344 C 165.4375 224.152344 165.375 224.214844 165.25 224.28125 L 107.832031 268.53125 C 107.640625 268.65625 107.453125 268.71875 107.199219 268.71875 Z M 181.835938 194.527344 L 118.71875 257.640625 L 163.855469 222.824219 Z M 194.496094 193.132812 L 257.609375 256.25 L 222.792969 211.113281 Z M 152.144531 163.949219 L 180.441406 181.929688 L 117.328125 118.816406 Z M 211.019531 152.175781 L 193.039062 180.472656 L 256.152344 117.359375 Z M 211.019531 152.175781 " fill-opacity="1" fill-rule="nonzero"/><path fill="#ffffff" d="M 187.46875 187.5 L 223.425781 164.648438 L 267.675781 107.230469 Z M 187.46875 187.5 L 210.320312 223.457031 L 267.738281 267.707031 Z M 187.46875 187.5 L 151.511719 210.351562 L 107.261719 267.769531 Z M 187.46875 187.5 L 164.617188 151.542969 L 107.199219 107.292969 Z M 187.46875 187.5 " fill-opacity="1" fill-rule="nonzero"/><path fill="#000000" d="M 267.738281 268.71875 C 267.546875 268.71875 267.296875 268.65625 267.167969 268.53125 L 209.75 224.28125 C 209.6875 224.214844 209.5625 224.152344 209.5 224.027344 L 187.339844 189.082031 L 107.894531 268.464844 C 107.515625 268.847656 106.945312 268.847656 106.566406 268.53125 C 106.183594 268.214844 106.121094 267.582031 106.4375 267.199219 L 150.6875 209.78125 C 150.75 209.71875 150.816406 209.59375 150.941406 209.53125 L 185.886719 187.375 L 106.5 107.925781 C 106.121094 107.546875 106.121094 106.976562 106.4375 106.597656 C 106.753906 106.21875 107.386719 106.152344 107.769531 106.46875 L 165.183594 150.71875 C 165.25 150.785156 165.375 150.847656 165.4375 150.972656 L 187.59375 185.917969 L 266.980469 106.535156 C 267.359375 106.152344 267.929688 106.152344 268.308594 106.46875 C 268.6875 106.785156 268.75 107.417969 268.433594 107.800781 L 224.183594 165.21875 C 224.121094 165.28125 224.058594 165.40625 223.933594 165.46875 L 188.988281 187.625 L 268.371094 267.011719 C 268.75 267.390625 268.75 267.960938 268.433594 268.339844 C 268.246094 268.59375 267.992188 268.71875 267.738281 268.71875 Z M 211.019531 222.824219 L 256.152344 257.640625 L 193.039062 194.527344 Z M 152.144531 211.050781 L 117.328125 256.183594 L 180.441406 193.070312 Z M 257.609375 118.75 L 194.496094 181.867188 L 222.792969 163.886719 Z M 118.71875 117.359375 L 181.835938 180.472656 L 163.855469 152.175781 Z M 118.71875 117.359375 " fill-opacity="1" fill-rule="nonzero"/><path fill="#000000" d="M 187.46875 187.5 L 164.617188 151.542969 L 187.46875 38.542969 Z M 187.46875 187.5 L 151.511719 210.351562 L 38.511719 187.5 Z M 187.46875 187.5 L 210.320312 223.457031 L 187.46875 336.457031 Z M 187.46875 187.5 L 223.425781 164.648438 L 336.421875 187.5 Z M 187.46875 187.5 " fill-opacity="1" fill-rule="nonzero"/><g clip-path="url(#042503df76)"><path fill="#000000" d="M 187.46875 337.46875 C 187.46875 337.46875 187.40625 337.46875 187.339844 337.46875 C 186.835938 337.40625 186.457031 336.960938 186.457031 336.519531 L 186.457031 189.273438 L 152.019531 211.175781 C 151.828125 211.300781 151.511719 211.367188 151.320312 211.300781 L 38.324219 188.449219 C 37.816406 188.324219 37.5 187.878906 37.5625 187.375 C 37.625 186.867188 38.070312 186.488281 38.511719 186.488281 L 185.695312 186.488281 L 163.792969 152.050781 C 163.664062 151.859375 163.601562 151.605469 163.664062 151.351562 L 186.519531 38.355469 C 186.644531 37.847656 187.023438 37.53125 187.59375 37.59375 C 188.101562 37.660156 188.480469 38.039062 188.480469 38.542969 L 188.480469 185.726562 L 222.980469 163.824219 C 223.171875 163.699219 223.488281 163.632812 223.679688 163.699219 L 336.675781 186.550781 C 337.183594 186.675781 337.5 187.121094 337.4375 187.625 C 337.375 188.132812 336.929688 188.511719 336.488281 188.511719 L 189.242188 188.511719 L 211.144531 223.015625 C 211.269531 223.203125 211.335938 223.519531 211.269531 223.710938 L 188.417969 336.707031 C 188.355469 337.089844 187.910156 337.46875 187.46875 337.46875 Z M 188.480469 190.917969 L 188.480469 326.644531 L 209.308594 223.710938 Z M 48.386719 188.511719 L 151.320312 209.339844 L 184.113281 188.511719 Z M 190.886719 186.488281 L 326.613281 186.488281 L 223.679688 165.660156 Z M 165.691406 151.351562 L 186.519531 184.144531 L 186.519531 48.421875 Z M 165.691406 151.351562 " fill-opacity="1" fill-rule="nonzero"/></g><path fill="#ffffff" d="M 187.46875 187.5 L 210.320312 151.542969 L 187.46875 38.542969 Z M 187.46875 187.5 L 223.425781 210.351562 L 336.421875 187.5 Z M 187.46875 187.5 L 164.617188 223.457031 L 187.46875 336.457031 Z M 187.46875 187.5 L 151.511719 164.648438 L 38.511719 187.5 Z M 187.46875 187.5 " fill-opacity="1" fill-rule="nonzero"/><g clip-path="url(#0470159ee3)"><path fill="#000000" d="M 187.46875 337.46875 C 187.023438 337.46875 186.582031 337.152344 186.519531 336.707031 L 163.664062 223.710938 C 163.601562 223.457031 163.664062 223.203125 163.792969 223.015625 L 185.695312 188.511719 L 38.511719 188.511719 C 38.007812 188.511719 37.5625 188.132812 37.5625 187.625 C 37.5 187.121094 37.878906 186.675781 38.324219 186.550781 L 151.320312 163.699219 C 151.574219 163.632812 151.828125 163.699219 152.019531 163.824219 L 186.519531 185.726562 L 186.519531 38.542969 C 186.519531 38.039062 186.898438 37.59375 187.40625 37.59375 C 187.910156 37.53125 188.355469 37.910156 188.480469 38.355469 L 211.335938 151.351562 C 211.398438 151.605469 211.335938 151.859375 211.207031 152.050781 L 189.304688 186.550781 L 336.488281 186.550781 C 336.992188 186.550781 337.4375 186.929688 337.4375 187.4375 C 337.5 187.941406 337.121094 188.386719 336.675781 188.511719 L 223.679688 211.367188 C 223.425781 211.429688 223.171875 211.367188 222.980469 211.238281 L 188.480469 189.335938 L 188.480469 336.519531 C 188.480469 337.023438 188.101562 337.46875 187.59375 337.46875 C 187.53125 337.46875 187.46875 337.46875 187.46875 337.46875 Z M 165.691406 223.710938 L 186.519531 326.644531 L 186.519531 190.917969 Z M 190.886719 188.511719 L 223.679688 209.339844 L 326.613281 188.511719 Z M 48.386719 186.488281 L 184.113281 186.488281 L 151.320312 165.660156 Z M 188.480469 48.421875 L 188.480469 184.144531 L 209.308594 151.351562 Z M 188.480469 48.421875 " fill-opacity="1" fill-rule="nonzero"/></g></svg>