<svg xmlns="http://www.w3.org/2000/svg" xmlns:xlink="http://www.w3.org/1999/xlink" width="500" zoomAndPan="magnify" viewBox="0 0 375 374.999991" height="500" preserveAspectRatio="xMidYMid meet" version="1.0"><defs><clipPath id="64760755b4"><path d="M 37.5 99 L 337.5 99 L 337.5 276 L 37.5 276 Z M 37.5 99 " clip-rule="nonzero"/></clipPath></defs><g clip-path="url(#64760755b4)"><path fill="#1a171b" d="M 82.355469 239.171875 C 79.488281 235.960938 79.496094 230.699219 82.242188 227.496094 C 82.753906 226.890625 83.351562 226.371094 84 225.933594 C 81.597656 224.25 79.398438 222.183594 77.410156 219.695312 C 71.480469 212.25 69.125 203.300781 65.246094 194.835938 C 64.617188 193.824219 63.96875 192.820312 63.308594 191.832031 C 61.835938 189.839844 60.285156 187.894531 58.667969 186.03125 C 56.984375 184.242188 55.226562 182.53125 53.410156 180.890625 C 51.535156 179.335938 49.621094 177.808594 47.605469 176.457031 C 45.410156 174.976562 43.101562 173.65625 40.855469 172.261719 L 40.816406 172.234375 L 40.78125 172.214844 C 40.023438 171.726562 39.34375 171.066406 38.820312 170.191406 L 38.796875 170.167969 C 38.757812 170.105469 38.71875 170.035156 38.679688 169.96875 L 38.667969 169.953125 C 37.453125 167.921875 37.460938 165.40625 38.769531 163.363281 C 40.066406 161.339844 42.363281 160.25 44.757812 160.523438 C 48.28125 160.933594 51.386719 160.625 54.730469 161.078125 C 54.8125 160.789062 54.902344 160.507812 55 160.222656 C 55.363281 159.117188 55.859375 158.066406 56.515625 157.105469 C 58.335938 154.414062 61.875 153.535156 64.757812 155.148438 C 68.710938 157.351562 71.21875 160.722656 73.542969 164.492188 L 73.554688 164.507812 C 74.804688 166.550781 75.695312 168.75 76.300781 171.070312 C 76.351562 171.246094 76.394531 171.433594 76.4375 171.613281 C 78.484375 169.015625 80.863281 166.699219 83.96875 164.847656 L 84.015625 164.820312 C 88.050781 162.464844 92.207031 160.632812 96.972656 160.625 L 96.992188 160.625 C 100.234375 160.625 102.9375 163.046875 103.226562 166.320312 C 103.359375 167.75 103.1875 169.113281 102.84375 170.445312 C 106.238281 171.886719 109.171875 173.925781 112.203125 176.148438 C 112.820312 175.914062 113.488281 175.777344 114.191406 175.753906 C 115.710938 175.695312 116.929688 175.902344 118.191406 176.203125 C 119.179688 173.28125 120.414062 170.5 121.371094 167.566406 C 122.117188 165.300781 124.039062 163.65625 126.441406 163.3125 C 128.761719 162.980469 131.058594 163.945312 132.445312 165.90625 C 134.226562 168.4375 136.226562 170.738281 138.019531 173.246094 C 139.140625 172.585938 140.238281 172.03125 141.710938 171.640625 C 144.984375 170.765625 148.25 172.601562 149.273438 175.746094 L 149.28125 175.761719 C 150.566406 179.726562 150.171875 183.464844 149.542969 187.503906 C 149.410156 188.355469 149.230469 189.199219 149.003906 190.03125 C 147.628906 194.929688 144.890625 198.320312 142.570312 202.675781 C 142.539062 202.726562 142.507812 202.78125 142.480469 202.832031 C 148.289062 205.753906 154.269531 206.6875 160.640625 203.882812 C 165.28125 201.839844 168.304688 196.824219 169.582031 192.097656 C 171.460938 185.148438 169.324219 181.828125 162.0625 181.335938 L 162.027344 181.328125 C 160.53125 181.21875 159.023438 180.578125 157.851562 179.289062 C 152.621094 173.519531 154.386719 164.863281 160.417969 160.679688 C 160.402344 160.519531 160.371094 160.355469 160.347656 160.199219 C 157.589844 160.394531 154.683594 160.628906 152.117188 161.460938 C 149.863281 162.1875 147.417969 161.613281 145.71875 159.886719 C 144.039062 158.179688 143.496094 155.722656 144.261719 153.480469 C 145.503906 149.859375 146.761719 146.457031 148.761719 143.285156 C 147.714844 142.386719 146.792969 141.355469 146.089844 140.109375 L 146.070312 140.078125 C 144.488281 137.261719 145.269531 133.730469 147.980469 131.863281 C 151.90625 129.160156 156.359375 128.296875 161.019531 127.933594 L 161.074219 127.933594 C 163.53125 127.757812 165.84375 127.964844 168.0625 128.410156 C 167.957031 128.105469 167.851562 127.808594 167.761719 127.507812 C 166.511719 123.519531 165.542969 119.789062 166.246094 115.574219 C 166.792969 112.238281 169.804688 110 173.117188 110.375 C 174.707031 110.554688 175.929688 110.96875 177.203125 111.484375 C 178.867188 107.785156 181.367188 102.628906 183.785156 100.835938 L 183.8125 100.804688 L 183.847656 100.78125 C 186.050781 99.195312 188.972656 99.195312 191.179688 100.78125 L 191.21875 100.804688 L 191.253906 100.835938 C 193.660156 102.628906 196.164062 107.785156 197.828125 111.484375 C 199.097656 110.96875 200.328125 110.554688 201.902344 110.375 C 205.222656 110 208.238281 112.238281 208.785156 115.574219 C 209.488281 119.789062 208.511719 123.519531 207.265625 127.503906 C 207.171875 127.808594 207.078125 128.109375 206.964844 128.410156 C 209.1875 127.964844 211.492188 127.757812 213.957031 127.933594 L 214.011719 127.933594 C 218.671875 128.296875 223.128906 129.160156 227.042969 131.863281 C 229.753906 133.730469 230.539062 137.261719 228.957031 140.078125 L 228.933594 140.109375 C 228.226562 141.355469 227.316406 142.386719 226.273438 143.277344 C 228.261719 146.457031 229.523438 149.859375 230.757812 153.480469 C 231.527344 155.722656 230.992188 158.179688 229.304688 159.886719 C 227.605469 161.613281 225.164062 162.1875 222.917969 161.460938 C 220.347656 160.628906 217.4375 160.394531 214.679688 160.199219 C 214.652344 160.355469 214.628906 160.519531 214.609375 160.679688 C 220.644531 164.859375 222.410156 173.519531 217.164062 179.289062 C 216.007812 180.578125 214.492188 181.21875 212.992188 181.328125 L 212.964844 181.335938 C 205.703125 181.828125 203.5625 185.148438 205.445312 192.097656 C 206.722656 196.824219 209.742188 201.839844 214.390625 203.882812 C 220.757812 206.6875 226.738281 205.753906 232.542969 202.832031 C 232.515625 202.78125 232.484375 202.726562 232.457031 202.675781 C 230.144531 198.320312 227.398438 194.929688 226.03125 190.03125 C 225.796875 189.199219 225.609375 188.355469 225.480469 187.503906 C 224.859375 183.464844 224.457031 179.726562 225.753906 175.761719 L 225.753906 175.746094 C 226.78125 172.601562 230.042969 170.765625 233.316406 171.640625 C 234.789062 172.03125 235.886719 172.585938 237.003906 173.246094 C 238.808594 170.738281 240.796875 168.4375 242.578125 165.90625 C 243.960938 163.945312 246.265625 162.980469 248.585938 163.3125 C 250.992188 163.65625 252.910156 165.300781 253.652344 167.566406 C 254.613281 170.5 255.847656 173.28125 256.832031 176.203125 C 258.097656 175.902344 259.316406 175.695312 260.839844 175.753906 C 261.542969 175.777344 262.210938 175.914062 262.835938 176.144531 C 265.851562 173.925781 268.792969 171.886719 272.183594 170.445312 C 271.84375 169.113281 271.675781 167.75 271.789062 166.320312 C 272.085938 163.046875 274.785156 160.625 278.039062 160.625 L 278.046875 160.625 C 282.8125 160.632812 286.976562 162.464844 291.011719 164.820312 L 291.0625 164.847656 C 294.15625 166.691406 296.546875 169.015625 298.59375 171.613281 C 299.171875 169.183594 300.046875 166.820312 301.472656 164.507812 L 301.480469 164.492188 C 303.804688 160.722656 306.320312 157.351562 310.273438 155.152344 C 313.160156 153.535156 316.6875 154.414062 318.507812 157.105469 C 319.167969 158.058594 319.65625 159.105469 320.027344 160.203125 L 320.035156 160.222656 C 320.121094 160.507812 320.207031 160.789062 320.292969 161.074219 C 323.636719 160.625 326.746094 160.933594 330.269531 160.523438 C 332.664062 160.25 334.957031 161.339844 336.257812 163.363281 C 337.570312 165.40625 337.570312 167.921875 336.363281 169.953125 L 336.34375 169.984375 C 336.300781 170.042969 336.261719 170.105469 336.234375 170.167969 L 336.214844 170.191406 C 335.683594 171.066406 335.003906 171.726562 334.246094 172.214844 L 334.210938 172.234375 L 334.171875 172.261719 C 331.921875 173.65625 329.652344 175.023438 327.417969 176.457031 C 325.429688 177.851562 323.488281 179.335938 321.617188 180.890625 C 319.800781 182.53125 318.050781 184.242188 316.363281 186.03125 C 314.734375 187.90625 313.152344 189.839844 311.703125 191.867188 C 311.023438 192.816406 310.398438 193.824219 309.78125 194.828125 C 309.136719 196.234375 308.53125 197.671875 307.953125 199.109375 C 305.046875 206.257812 302.492188 213.574219 297.617188 219.695312 C 295.636719 222.179688 293.449219 224.234375 291.042969 225.917969 C 291.71875 226.359375 292.332031 226.898438 292.851562 227.519531 C 295.5625 230.714844 295.511719 236.125 292.636719 239.238281 C 291.386719 246.722656 291.421875 253.929688 292.710938 261.464844 C 297.316406 266.902344 294.828125 275.152344 287.53125 275.601562 C 286.835938 275.644531 286.832031 275.644531 286.132812 275.566406 C 269.695312 273.753906 253.234375 272.125 236.730469 270.960938 C 220.359375 269.796875 203.945312 269.085938 187.53125 269.089844 C 171.117188 269.101562 154.703125 269.824219 138.324219 270.984375 C 121.835938 272.160156 105.375 273.777344 88.941406 275.578125 C 88.308594 275.644531 88.296875 275.652344 87.644531 275.617188 C 80.332031 275.261719 77.789062 266.953125 82.335938 261.496094 C 83.597656 254.03125 83.601562 246.613281 82.355469 239.171875 Z M 109.066406 187.773438 C 106.96875 188.59375 104.925781 189.789062 102.972656 190.945312 C 103.335938 191.671875 103.671875 192.417969 103.988281 193.167969 C 104.277344 193.851562 104.527344 194.539062 104.730469 195.246094 L 104.742188 195.269531 C 105.632812 198.378906 104.066406 201.667969 100.9375 202.851562 C 97.207031 204.257812 93.351562 204.066406 89.464844 203.71875 L 89.449219 203.714844 C 88.457031 203.628906 87.480469 203.457031 86.511719 203.226562 C 91.054688 207.066406 97.539062 208.929688 103.242188 209.546875 C 110.105469 210.292969 116.480469 208.980469 121.988281 205.222656 C 118.636719 201.972656 115.230469 199.5625 112.601562 195.460938 C 112.140625 194.738281 111.714844 193.980469 111.347656 193.207031 C 110.457031 191.378906 109.648438 189.609375 109.066406 187.773438 Z M 265.960938 187.773438 C 265.382812 189.609375 264.570312 191.378906 263.683594 193.207031 C 263.308594 193.980469 262.886719 194.738281 262.421875 195.460938 C 259.796875 199.5625 256.386719 201.972656 253.039062 205.222656 C 258.554688 208.980469 264.925781 210.292969 271.785156 209.546875 C 277.484375 208.929688 283.980469 207.0625 288.527344 203.21875 C 287.605469 203.449219 286.632812 203.625 285.566406 203.71875 C 281.675781 204.066406 277.824219 204.257812 274.089844 202.851562 C 270.96875 201.667969 269.394531 198.378906 270.285156 195.269531 L 270.285156 195.246094 C 270.5 194.539062 270.757812 193.84375 271.039062 193.164062 C 271.355469 192.414062 271.691406 191.671875 272.050781 190.945312 C 270.097656 189.789062 268.054688 188.589844 265.960938 187.773438 Z M 265.960938 187.773438 " fill-opacity="1" fill-rule="evenodd"/></g><path fill="#ffffff" d="M 286.746094 236.710938 C 286.511719 238.054688 286.300781 239.328125 286.117188 240.542969 C 285.496094 239.964844 284.75 239.609375 283.820312 239.5625 C 281.507812 239.445312 279.179688 240.363281 277.40625 242.125 C 273.992188 245.542969 273.992188 251.09375 277.40625 254.515625 C 279.015625 256.117188 281.089844 256.875 283.1875 257.070312 C 284.117188 257.15625 284.945312 256.730469 285.644531 255.972656 C 285.878906 258.292969 286.25 260.789062 286.757812 263.636719 C 286.617188 263.601562 286.46875 263.570312 286.328125 263.550781 C 269.855469 261.730469 253.386719 260.101562 236.929688 258.9375 C 220.457031 257.757812 203.980469 257.046875 187.511719 257.050781 C 171.03125 257.0625 154.558594 257.785156 138.097656 258.957031 C 121.636719 260.132812 105.171875 261.757812 88.714844 263.566406 C 88.574219 263.582031 88.429688 263.605469 88.296875 263.636719 C 88.761719 261 89.105469 258.667969 89.332031 256.492188 C 89.898438 256.921875 90.53125 257.136719 91.21875 257.070312 C 93.3125 256.875 95.390625 256.117188 97 254.515625 C 100.417969 251.09375 100.417969 245.542969 97 242.125 C 95.230469 240.363281 92.902344 239.445312 90.589844 239.5625 C 89.921875 239.601562 89.332031 239.792969 88.824219 240.121094 C 88.660156 239.035156 88.472656 237.90625 88.265625 236.710938 C 88.453125 236.722656 88.632812 236.71875 88.824219 236.703125 C 105.257812 234.902344 121.703125 233.289062 138.164062 232.113281 C 154.625 230.953125 171.078125 230.226562 187.511719 230.21875 C 203.933594 230.210938 220.375 230.921875 236.835938 232.09375 C 253.292969 233.253906 269.742188 234.875 286.191406 236.695312 L 286.199219 236.695312 L 286.234375 236.699219 C 286.40625 236.699219 286.566406 236.71875 286.746094 236.710938 Z M 182 116.046875 C 181.460938 117.273438 181.261719 118.566406 180.949219 119.921875 C 180.914062 120.105469 180.738281 120.320312 180.574219 120.230469 C 179.3125 119.46875 178.195312 118.644531 176.847656 118.09375 C 175.390625 117.496094 174.007812 116.746094 172.421875 116.574219 C 172.410156 116.570312 172.394531 116.578125 172.394531 116.597656 C 171.878906 119.683594 172.792969 122.710938 173.710938 125.652344 C 173.90625 126.269531 174.132812 126.867188 174.386719 127.441406 C 176.195312 131.476562 179.425781 134.464844 182.179688 138.167969 C 182.886719 139.113281 183.511719 140.105469 183.980469 141.144531 C 183.980469 141.152344 183.980469 141.160156 183.96875 141.167969 C 183.96875 141.179688 183.960938 141.179688 183.949219 141.179688 C 182.46875 140.695312 181.023438 140.070312 179.621094 139.441406 C 173.898438 136.859375 167.976562 133.699219 161.503906 134.148438 C 158.027344 134.417969 154.449219 134.976562 151.519531 136.996094 C 151.511719 137.003906 151.503906 137.019531 151.511719 137.035156 C 152.265625 138.355469 153.882812 139.40625 155.160156 140.191406 C 156.195312 140.835938 157.351562 141.273438 158.457031 141.796875 C 158.824219 141.980469 157.949219 142.507812 157.820312 142.597656 C 156.863281 143.308594 155.902344 144.039062 155.160156 144.984375 C 152.734375 148.128906 151.433594 151.789062 150.160156 155.496094 C 150.160156 155.503906 150.160156 155.515625 150.171875 155.527344 C 150.175781 155.535156 150.183594 155.535156 150.195312 155.535156 C 153.9375 154.316406 157.832031 154.15625 161.71875 153.847656 C 163.03125 153.753906 164.300781 153.378906 165.59375 153.15625 C 166.179688 153.054688 166.078125 153.589844 166.085938 154.003906 C 166.140625 156.453125 166.371094 158.910156 166.878906 161.316406 C 166.980469 161.808594 167.109375 162.289062 167.265625 162.761719 C 167.269531 162.769531 167.285156 162.777344 167.296875 162.777344 C 170.054688 162.089844 172.59375 160.003906 174.742188 158.207031 C 176.003906 157.15625 177.019531 155.890625 177.976562 154.574219 C 178.585938 153.730469 179.585938 153.367188 180.589844 153.609375 C 181.597656 153.859375 182.308594 154.644531 182.460938 155.671875 C 183.222656 160.835938 184.40625 166.816406 185.609375 173.207031 C 185.617188 173.21875 185.609375 173.230469 185.597656 173.234375 C 185.582031 173.238281 185.570312 173.234375 185.558594 173.222656 C 184.230469 170.175781 182.203125 167.6875 179.398438 166.101562 C 174.863281 163.554688 169.078125 163.113281 164.730469 165.339844 C 161.632812 166.960938 159.324219 171.640625 162.472656 175.109375 C 162.480469 175.113281 162.484375 175.113281 162.484375 175.113281 C 173.867188 175.890625 178.480469 183.085938 175.601562 193.722656 C 173.75 200.566406 169.398438 206.835938 163.152344 209.585938 C 153.824219 213.695312 144.9375 211.730469 136.660156 206.726562 C 135.792969 206.199219 135.351562 205.273438 135.472656 204.269531 C 135.675781 202.714844 136.292969 201.191406 137.0625 199.738281 C 139.179688 195.800781 141.839844 192.472656 142.992188 188.347656 C 143.15625 187.769531 143.289062 187.164062 143.386719 186.542969 C 143.839844 183.597656 144.28125 180.5625 143.34375 177.679688 C 143.34375 177.664062 143.328125 177.65625 143.3125 177.664062 C 141.820312 178.0625 140.605469 178.96875 139.296875 179.753906 C 138.09375 180.46875 137.136719 181.414062 136.03125 182.332031 C 135.894531 182.449219 135.699219 182.265625 135.628906 182.09375 C 135.140625 180.839844 134.765625 179.625 134.070312 178.539062 C 132.046875 175.324219 129.519531 172.582031 127.351562 169.496094 C 127.34375 169.488281 127.332031 169.480469 127.332031 169.480469 C 127.3125 169.480469 127.3125 169.488281 127.300781 169.496094 C 126.132812 173.089844 124.519531 176.449219 123.515625 180.113281 C 123.171875 181.355469 123.167969 182.625 123.0625 183.96875 C 123.050781 184.15625 122.917969 184.382812 122.753906 184.316406 C 121.429688 183.765625 120.242188 183.140625 118.871094 182.804688 C 117.394531 182.441406 115.960938 181.921875 114.417969 181.976562 C 114.410156 181.976562 114.398438 181.984375 114.398438 182 C 114.34375 185.035156 115.65625 187.8125 116.957031 190.5 C 117.230469 191.054688 117.53125 191.589844 117.859375 192.105469 C 120.164062 195.710938 123.6875 198.105469 126.851562 201.261719 C 127.902344 202.300781 128.835938 203.4375 129.484375 204.6875 C 130.019531 205.714844 129.792969 206.929688 128.921875 207.699219 C 121.523438 214.261719 112.535156 216.832031 102.566406 215.746094 C 90.503906 214.433594 78.757812 208.75 75.421875 197.304688 C 75.1875 196.496094 75.347656 195.703125 75.878906 195.042969 C 76.394531 194.390625 77.148438 194.066406 77.988281 194.117188 C 78.144531 194.128906 78.289062 194.144531 78.445312 194.167969 C 82.441406 194.804688 85.945312 197.144531 90.007812 197.511719 C 92.804688 197.753906 96.074219 198.027344 98.730469 197.023438 C 98.746094 197.015625 98.753906 197.003906 98.746094 196.988281 C 98.613281 196.515625 98.433594 196.046875 98.246094 195.585938 C 97.289062 193.320312 96.082031 191.164062 94.71875 189.125 C 94.5 188.78125 94.113281 188.394531 94.644531 188.148438 C 95.832031 187.59375 97.097656 187.183594 98.222656 186.507812 C 101.597656 184.542969 104.882812 182.464844 108.644531 181.324219 C 108.660156 181.320312 108.667969 181.3125 108.667969 181.304688 C 108.667969 181.296875 108.664062 181.289062 108.660156 181.28125 C 105.5 178.953125 102.34375 176.6875 98.558594 175.492188 C 97.402344 175.140625 96.199219 175.085938 95.007812 175.050781 C 94.859375 175.050781 93.835938 175.105469 94.035156 174.753906 C 94.636719 173.695312 95.335938 172.675781 95.828125 171.558594 C 96.421875 170.179688 97.160156 168.402344 97.015625 166.875 C 97.015625 166.855469 97.007812 166.851562 96.992188 166.851562 C 93.425781 166.855469 90.175781 168.445312 87.164062 170.199219 C 81.585938 173.519531 78.535156 179.492188 75.300781 184.867188 C 74.492188 186.226562 73.640625 187.585938 72.664062 188.851562 C 72.65625 188.863281 72.648438 188.863281 72.648438 188.863281 C 72.632812 188.863281 72.621094 188.851562 72.621094 188.84375 C 72.40625 188.132812 72.25 187.40625 72.113281 186.679688 C 70.945312 180.339844 71.746094 173.488281 68.238281 167.757812 C 66.53125 164.992188 64.617188 162.214844 61.710938 160.589844 C 61.703125 160.585938 61.6875 160.589844 61.675781 160.597656 C 61.347656 161.085938 61.101562 161.628906 60.910156 162.1875 C 60.257812 164.148438 60.007812 166.140625 59.914062 168.191406 C 59.898438 168.566406 60.0625 169.488281 59.410156 169.167969 C 58.429688 168.683594 57.464844 168.164062 56.425781 167.820312 C 52.492188 166.546875 48.101562 167.183594 44.042969 166.714844 C 44.035156 166.714844 44.027344 166.722656 44.023438 166.730469 C 44.011719 166.738281 44.011719 166.746094 44.023438 166.757812 C 44.058594 166.824219 44.105469 166.890625 44.144531 166.960938 C 44.144531 166.964844 44.144531 166.96875 44.144531 166.96875 C 46.488281 168.429688 48.855469 169.78125 51.082031 171.277344 C 53.316406 172.777344 55.417969 174.453125 57.492188 176.171875 C 59.496094 177.980469 61.429688 179.875 63.289062 181.847656 C 65.070312 183.902344 66.777344 186.035156 68.394531 188.242188 C 69.207031 189.4375 69.992188 190.644531 70.753906 191.882812 C 77.4375 206.308594 79.792969 223.355469 101.480469 225.636719 C 115.832031 227.199219 129.246094 220.921875 133.121094 207.523438 C 140.847656 219.167969 155.699219 221.121094 168.925781 215.292969 C 175.898438 212.222656 181.445312 206.464844 184.269531 199.449219 C 186.367188 194.375 187.503906 188.84375 187.515625 183.703125 L 187.515625 183.707031 L 187.515625 183.703125 C 187.523438 188.84375 188.664062 194.375 190.757812 199.449219 C 193.582031 206.464844 199.128906 212.222656 206.101562 215.292969 C 219.328125 221.121094 234.179688 219.167969 241.902344 207.523438 C 245.78125 220.921875 259.199219 227.199219 273.546875 225.636719 C 295.234375 223.355469 297.585938 206.308594 304.28125 191.882812 C 305.035156 190.644531 305.785156 189.414062 306.625 188.242188 C 308.214844 186.007812 309.945312 183.902344 311.734375 181.847656 C 313.601562 179.875 315.527344 177.980469 317.539062 176.171875 C 319.597656 174.453125 321.738281 172.820312 323.945312 171.277344 C 326.203125 169.828125 328.535156 168.429688 330.875 166.96875 C 330.875 166.96875 330.886719 166.964844 330.886719 166.960938 C 330.921875 166.890625 330.964844 166.824219 331.003906 166.757812 C 331.015625 166.746094 331.015625 166.738281 331.003906 166.730469 C 331 166.722656 330.992188 166.714844 330.992188 166.714844 C 326.929688 167.183594 322.527344 166.542969 318.601562 167.820312 C 317.558594 168.160156 316.597656 168.683594 315.617188 169.167969 C 314.964844 169.488281 315.132812 168.566406 315.105469 168.191406 C 315.027344 166.140625 314.769531 164.148438 314.117188 162.1875 C 313.925781 161.628906 313.6875 161.085938 313.351562 160.597656 C 313.34375 160.589844 313.332031 160.585938 313.316406 160.589844 C 310.402344 162.214844 308.496094 164.992188 306.789062 167.757812 C 303.277344 173.488281 304.082031 180.339844 302.917969 186.679688 C 302.785156 187.40625 302.621094 188.132812 302.402344 188.84375 C 302.402344 188.851562 302.394531 188.863281 302.394531 188.863281 C 302.378906 188.863281 302.371094 188.863281 302.363281 188.851562 C 301.386719 187.585938 300.550781 186.21875 299.726562 184.867188 C 296.496094 179.484375 293.449219 173.519531 287.867188 170.199219 C 284.855469 168.445312 281.601562 166.855469 278.039062 166.851562 C 278.015625 166.851562 278.007812 166.855469 278.007812 166.875 C 277.867188 168.402344 278.59375 170.179688 279.195312 171.558594 C 279.695312 172.675781 280.398438 173.695312 281 174.753906 C 281.191406 175.105469 280.171875 175.050781 280.019531 175.050781 C 278.816406 175.085938 277.621094 175.140625 276.46875 175.492188 C 272.6875 176.6875 269.527344 178.953125 266.367188 181.28125 C 266.355469 181.289062 266.355469 181.296875 266.355469 181.304688 C 266.355469 181.3125 266.367188 181.320312 266.375 181.324219 C 270.140625 182.464844 273.425781 184.542969 276.804688 186.507812 C 277.929688 187.183594 279.195312 187.59375 280.386719 188.148438 C 280.921875 188.394531 280.53125 188.78125 280.300781 189.125 C 278.945312 191.164062 277.742188 193.320312 276.78125 195.585938 C 276.585938 196.046875 276.417969 196.515625 276.28125 196.988281 C 276.277344 197.003906 276.28125 197.015625 276.292969 197.023438 C 278.953125 198.027344 282.226562 197.757812 285.011719 197.511719 C 289.085938 197.144531 292.582031 194.804688 296.585938 194.167969 C 296.734375 194.144531 296.882812 194.128906 297.050781 194.117188 C 297.882812 194.066406 298.625 194.390625 299.152344 195.042969 C 299.679688 195.703125 299.839844 196.496094 299.601562 197.304688 C 296.277344 208.75 284.519531 214.433594 272.464844 215.746094 C 262.496094 216.832031 253.5 214.261719 246.101562 207.699219 C 245.234375 206.929688 245.007812 205.714844 245.539062 204.6875 C 246.191406 203.4375 247.132812 202.300781 248.171875 201.261719 C 251.339844 198.105469 254.859375 195.710938 257.175781 192.105469 C 257.496094 191.589844 257.792969 191.054688 258.074219 190.5 C 259.375 187.8125 260.6875 185.035156 260.628906 182 C 260.628906 181.984375 260.613281 181.976562 260.605469 181.976562 C 259.0625 181.921875 257.632812 182.441406 256.152344 182.804688 C 254.792969 183.140625 253.601562 183.765625 252.277344 184.316406 C 252.101562 184.382812 251.972656 184.15625 251.96875 183.96875 C 251.863281 182.625 251.859375 181.355469 251.511719 180.113281 C 250.511719 176.449219 248.898438 173.089844 247.722656 169.496094 C 247.71875 169.488281 247.710938 169.480469 247.707031 169.480469 C 247.707031 169.480469 247.6875 169.488281 247.6875 169.496094 C 245.511719 172.582031 242.984375 175.324219 240.945312 178.539062 C 240.253906 179.625 239.886719 180.839844 239.394531 182.09375 C 239.332031 182.265625 239.132812 182.449219 238.992188 182.332031 C 237.894531 181.414062 236.933594 180.46875 235.726562 179.753906 C 234.421875 178.96875 233.207031 178.0625 231.707031 177.664062 C 231.703125 177.65625 231.683594 177.664062 231.679688 177.679688 C 230.75 180.5625 231.191406 183.597656 231.644531 186.542969 C 231.746094 187.164062 231.867188 187.769531 232.03125 188.347656 C 233.179688 192.472656 235.851562 195.800781 237.964844 199.738281 C 238.738281 201.191406 239.347656 202.714844 239.550781 204.269531 C 239.683594 205.273438 239.230469 206.199219 238.367188 206.726562 C 230.089844 211.730469 221.207031 213.695312 211.867188 209.585938 C 205.628906 206.835938 201.273438 200.566406 199.429688 193.722656 C 196.546875 183.085938 201.160156 175.890625 212.535156 175.113281 C 212.550781 175.113281 212.550781 175.113281 212.550781 175.109375 C 215.695312 171.640625 213.398438 166.960938 210.300781 165.339844 C 205.953125 163.113281 200.164062 163.554688 195.632812 166.101562 C 192.824219 167.683594 190.792969 170.171875 189.464844 173.21875 C 189.460938 173.230469 189.445312 173.238281 189.441406 173.234375 C 189.425781 173.230469 189.417969 173.21875 189.417969 173.207031 C 190.628906 166.816406 191.808594 160.835938 192.566406 155.671875 C 192.71875 154.644531 193.429688 153.859375 194.4375 153.609375 C 195.449219 153.367188 196.445312 153.730469 197.050781 154.574219 C 198.015625 155.890625 199.023438 157.15625 200.285156 158.207031 C 202.4375 160.003906 204.976562 162.089844 207.730469 162.777344 C 207.746094 162.777344 207.757812 162.769531 207.757812 162.757812 C 207.921875 162.289062 208.042969 161.808594 208.148438 161.316406 C 208.65625 158.910156 208.894531 156.453125 208.941406 154.003906 C 208.949219 153.589844 208.851562 153.054688 209.429688 153.15625 C 210.726562 153.378906 211.996094 153.753906 213.304688 153.847656 C 217.195312 154.15625 221.09375 154.316406 224.832031 155.535156 C 224.847656 155.535156 224.847656 155.535156 224.859375 155.527344 C 224.863281 155.515625 224.863281 155.503906 224.863281 155.496094 C 223.59375 151.789062 222.292969 148.128906 219.867188 144.984375 C 219.121094 144.039062 218.164062 143.308594 217.203125 142.597656 C 217.078125 142.507812 216.199219 141.980469 216.570312 141.796875 C 217.671875 141.273438 218.835938 140.835938 219.867188 140.191406 C 221.144531 139.40625 222.757812 138.355469 223.515625 137.035156 C 223.523438 137.019531 223.523438 137.003906 223.511719 136.996094 C 220.574219 134.976562 216.996094 134.417969 213.523438 134.148438 C 207.050781 133.699219 201.136719 136.863281 195.40625 139.441406 C 194.003906 140.078125 192.5625 140.695312 191.082031 141.179688 C 191.074219 141.179688 191.058594 141.179688 191.058594 141.167969 C 191.050781 141.160156 191.046875 141.152344 191.050781 141.144531 C 191.519531 140.105469 192.140625 139.113281 192.851562 138.167969 C 195.597656 134.464844 198.835938 131.476562 200.636719 127.441406 C 200.894531 126.867188 201.121094 126.269531 201.320312 125.652344 C 202.226562 122.710938 203.144531 119.683594 202.632812 116.597656 C 202.625 116.578125 202.625 116.570312 202.609375 116.574219 C 201.015625 116.746094 199.636719 117.496094 198.175781 118.09375 C 196.832031 118.644531 195.714844 119.46875 194.453125 120.230469 C 194.296875 120.320312 194.117188 120.105469 194.078125 119.921875 C 193.773438 118.566406 193.570312 117.273438 193.03125 116.046875 C 192.253906 114.292969 188.917969 106.871094 187.523438 105.835938 C 187.523438 105.832031 187.503906 105.832031 187.5 105.835938 C 186.109375 106.871094 182.777344 114.292969 182 116.046875 Z M 138.171875 259.90625 C 121.710938 261.082031 105.257812 262.707031 88.824219 264.503906 C 88.265625 264.570312 87.726562 264.863281 87.304688 265.292969 C 86.878906 265.722656 86.582031 266.273438 86.519531 266.847656 C 86.496094 267.113281 86.480469 267.382812 86.46875 267.648438 L 86.460938 267.746094 C 86.460938 267.839844 86.460938 267.945312 86.476562 268.035156 C 86.511719 268.425781 86.6875 268.753906 86.941406 268.984375 C 87.195312 269.230469 87.550781 269.367188 87.945312 269.386719 C 88.046875 269.394531 88.15625 269.386719 88.265625 269.378906 C 104.804688 267.574219 121.347656 265.945312 137.886719 264.769531 C 154.425781 263.59375 170.972656 262.863281 187.523438 262.863281 C 204.089844 262.851562 220.628906 263.570312 237.171875 264.742188 C 253.722656 265.910156 270.269531 267.550781 286.816406 269.363281 C 286.929688 269.378906 287.046875 269.382812 287.15625 269.378906 C 287.558594 269.351562 287.90625 269.210938 288.167969 268.976562 C 288.414062 268.742188 288.585938 268.425781 288.628906 268.046875 C 288.644531 267.949219 288.644531 267.847656 288.640625 267.75 C 288.625 267.488281 288.59375 267.242188 288.574219 266.996094 L 288.5625 266.835938 C 288.503906 266.285156 288.203125 265.738281 287.777344 265.304688 C 287.339844 264.863281 286.773438 264.5625 286.207031 264.496094 C 269.765625 262.675781 253.304688 261.046875 236.851562 259.875 C 220.386719 258.707031 203.933594 257.988281 187.511719 257.996094 C 171.089844 258.007812 154.636719 258.726562 138.171875 259.90625 Z M 137.960938 226.199219 C 121.417969 227.371094 104.894531 228.988281 88.375 230.785156 C 87.828125 230.84375 87.335938 231.132812 86.984375 231.546875 C 86.625 231.964844 86.417969 232.5 86.445312 233.042969 C 86.449219 233.203125 86.460938 233.351562 86.476562 233.484375 C 86.480469 233.601562 86.5 233.753906 86.519531 233.941406 C 86.582031 234.480469 86.859375 234.941406 87.257812 235.25 C 87.652344 235.5625 88.167969 235.726562 88.714844 235.664062 C 105.171875 233.867188 121.628906 232.246094 138.09375 231.078125 C 154.546875 229.90625 171.027344 229.183594 187.511719 229.179688 C 203.980469 229.167969 220.457031 229.878906 236.917969 231.046875 C 253.367188 232.214844 269.84375 233.84375 286.304688 235.660156 L 286.332031 235.664062 C 286.875 235.710938 287.398438 235.550781 287.800781 235.238281 C 288.195312 234.941406 288.480469 234.496094 288.53125 233.96875 L 288.539062 233.949219 L 288.5625 233.777344 C 288.574219 233.542969 288.601562 233.300781 288.613281 233.039062 C 288.652344 232.492188 288.445312 231.964844 288.097656 231.546875 C 287.746094 231.132812 287.242188 230.84375 286.703125 230.785156 C 270.171875 228.96875 253.652344 227.339844 237.101562 226.171875 C 220.570312 225.007812 204.03125 224.300781 187.523438 224.304688 C 171.027344 224.308594 154.492188 225.03125 137.960938 226.199219 Z M 286.019531 241.199219 L 285.988281 241.457031 C 283.824219 241.242188 281.585938 241.96875 279.929688 243.625 C 276.996094 246.554688 276.996094 251.316406 279.929688 254.25 C 280.496094 254.8125 281.121094 255.269531 281.796875 255.617188 C 280.511719 255.300781 279.300781 254.640625 278.296875 253.636719 C 275.351562 250.699219 275.351562 245.945312 278.296875 243.007812 C 280.386719 240.917969 283.402344 240.320312 286.019531 241.199219 Z M 89.011719 241.425781 L 88.960938 241.035156 C 91.441406 240.414062 94.175781 241.074219 96.117188 243.007812 C 99.054688 245.945312 99.054688 250.699219 96.117188 253.636719 C 95.113281 254.640625 93.898438 255.300781 92.613281 255.617188 C 93.28125 255.269531 93.910156 254.8125 94.480469 254.25 C 97.40625 251.316406 97.40625 246.554688 94.480469 243.625 C 92.972656 242.117188 90.984375 241.390625 89.011719 241.425781 Z M 113.445312 249.515625 C 111.558594 247.011719 113.234375 243.417969 115.125 241.472656 C 128.363281 228.613281 139.359375 256.316406 153.488281 255.71875 C 160.136719 255.441406 166.09375 251.050781 167.21875 244.257812 C 167.792969 239.691406 165.738281 234.878906 161.097656 233.421875 C 158.296875 232.683594 154.722656 233.644531 154.070312 236.832031 C 153.839844 238.3125 154.441406 239.4375 155.683594 240.207031 C 157.851562 241.570312 160.472656 240.863281 161.359375 241.921875 C 163.253906 244.425781 161.570312 248.019531 159.6875 249.964844 C 146.304688 262.964844 135.375 234.976562 121.324219 235.710938 C 114.683594 236.066406 108.714844 240.386719 107.589844 247.183594 C 107.019531 251.746094 109.074219 256.558594 113.710938 258.015625 C 116.507812 258.753906 120.082031 257.792969 120.746094 254.605469 C 120.980469 253.125 120.367188 252.007812 119.125 251.234375 C 116.960938 249.863281 114.335938 250.570312 113.445312 249.515625 Z M 193.710938 237.265625 C 197.136719 240.6875 197.136719 246.230469 193.710938 249.652344 C 190.289062 253.074219 184.746094 253.074219 181.3125 249.652344 C 177.890625 246.230469 177.890625 240.6875 181.3125 237.265625 C 184.746094 233.84375 190.289062 233.84375 193.710938 237.265625 Z M 192.832031 238.148438 C 190.457031 235.769531 186.894531 235.320312 184.058594 236.78125 C 186.53125 236.171875 189.261719 236.832031 191.195312 238.761719 C 194.128906 241.695312 194.128906 246.457031 191.195312 249.386719 C 190.628906 249.949219 190 250.402344 189.328125 250.753906 C 190.613281 250.433594 191.824219 249.773438 192.832031 248.773438 C 195.769531 245.832031 195.769531 241.078125 192.832031 238.148438 Z M 261.542969 249.515625 C 263.4375 247.011719 261.75 243.417969 259.867188 241.472656 C 246.628906 228.613281 235.632812 256.316406 221.503906 255.71875 C 214.859375 255.441406 208.90625 251.050781 207.773438 244.257812 C 207.207031 239.691406 209.253906 234.878906 213.894531 233.421875 C 216.691406 232.683594 220.265625 233.644531 220.925781 236.832031 C 221.15625 238.3125 220.546875 239.4375 219.308594 240.207031 C 217.144531 241.570312 214.519531 240.863281 213.632812 241.921875 C 211.742188 244.425781 213.417969 248.019531 215.3125 249.964844 C 228.6875 262.964844 239.617188 234.976562 253.671875 235.710938 C 260.308594 236.066406 266.269531 240.386719 267.394531 247.183594 C 267.96875 251.746094 265.914062 256.558594 261.28125 258.015625 C 258.476562 258.753906 254.914062 257.792969 254.242188 254.605469 C 254.019531 253.125 254.621094 252.007812 255.867188 251.234375 C 258.027344 249.863281 260.65625 250.570312 261.542969 249.515625 Z M 261.542969 249.515625 " fill-opacity="1" fill-rule="evenodd"/></svg>